<svg xmlns="http://www.w3.org/2000/svg" xmlns:xlink="http://www.w3.org/1999/xlink" viewBox="0 0 2529.24 2569.74"><defs><style>.cls-1{fill:url(#linear-gradient);}.cls-2{fill:#f43e69;}.cls-3{fill:url(#linear-gradient-2);}.cls-4{fill:url(#linear-gradient-3);}.cls-5{fill:url(#linear-gradient-5);}</style><linearGradient id="linear-gradient" y1="1175.29" x2="713.19" y2="1175.29" gradientUnits="userSpaceOnUse"><stop offset="0" stop-color="#5340ec"/><stop offset="1" stop-color="#6051fa"/></linearGradient><linearGradient id="linear-gradient-2" x1="10030.97" y1="829.07" x2="10019.05" y2="-1114.36" gradientTransform="matrix(-1, 0, 0, 1, 11652.97, 0)" gradientUnits="userSpaceOnUse"><stop offset="0" stop-color="#f96d5c"/><stop offset="1" stop-color="#fff"/></linearGradient><linearGradient id="linear-gradient-3" x1="11845.8" y1="1937.31" x2="10343.52" y2="1106.69" gradientTransform="matrix(-1, 0, 0, 1, 11652.97, 0)" gradientUnits="userSpaceOnUse"><stop offset="0"/><stop offset="1" stop-color="#f96d5c"/></linearGradient><linearGradient id="linear-gradient-5" x1="1139.52" y1="12.17" x2="613.26" y2="1808.9" gradientUnits="userSpaceOnUse"><stop offset="0"/><stop offset="1" stop-color="#5846f1"/></linearGradient></defs><g id="Layer_2" data-name="Layer 2"><g id="Layer_1-2" data-name="Layer 1"><polygon class="cls-1" points="713.19 549.23 0.74 978.61 705.1 1411.67 713.19 1416.82 713.19 1910.16 0 2350.57 0 440.41 374.24 209.55 713.19 0 713.19 549.23"/><polygon class="cls-2" points="713.19 1021.32 713.19 1910.16 1815.32 2569.74 1816.05 2569.01 2529.24 2143.3 1816.05 1702.89 1416.08 1455.85 713.92 1022.79 714.65 1022.06 713.19 1021.32"/><polygon class="cls-3" points="714.65 1022.06 719.07 1025 1416.08 1455.85 1566.07 1363.94 1816.05 1209.54 1824.14 1204.4 2528.5 771.34 1816.05 341.96 1177.13 736.78 714.65 1022.06"/><polygon class="cls-4" points="719.07 1025 1416.08 1455.85 1566.07 1363.94 1480.05 1329.39 719.07 1025"/><polygon class="cls-1" points="0 440.41 713.19 0 713.19 1910.16 0 2350.57 0 440.41"/><polygon class="cls-5" points="713.92 1022.79 540.03 2017.09 713.19 1910.16 713.92 1022.79"/></g></g></svg>